<svg width="45" height="38" viewBox="0 0 45 38" fill="none" xmlns="http://www.w3.org/2000/svg">
<path d="M0 31.2941H33.75V38H0V31.2941ZM41.625 31.2941H45V38H41.625V31.2941ZM36 31.2941H39.375V38H36V31.2941ZM37.9125 12.8082C39.3075 11.4447 40.1625 9.56706 40.1625 7.48823C40.1625 3.35294 36.7875 0 32.625 0V3.35294C34.92 3.35294 36.7875 5.20824 36.7875 7.48823C36.7875 9.76824 34.92 11.6235 32.625 11.6235V14.9765C37.665 14.9765 41.625 19.0671 41.625 24.0741V29.0588H45V24.0518C45 19.0894 42.12 14.7976 37.9125 12.8082ZM31.5675 18.3294H28.125C25.83 18.3294 23.9625 16.1388 23.9625 13.8588C23.9625 11.5788 25.83 9.94706 28.125 9.94706V6.59412C23.9625 6.59412 20.5875 9.94706 20.5875 14.0824C20.5875 18.2176 23.9625 21.5706 28.125 21.5706H31.5675C33.93 21.5706 36 23.2247 36 26.1529V29.0588H39.375V25.3929C39.375 21.3471 35.775 18.3294 31.5675 18.3294Z" fill="#A8A8A8"/>
</svg>
