<svg width="19" height="18" viewBox="0 0 19 18" fill="none" xmlns="http://www.w3.org/2000/svg">
<path d="M11.7885 7.5C11.5712 7.5 11.3787 7.35961 11.3124 7.15266L9.9761 2.98499C9.82762 2.52187 9.17234 2.52187 9.02385 2.98499L7.6876 7.15266C7.62124 7.35961 7.4288 7.5 7.21147 7.5H3.21568C2.72264 7.5 2.52719 8.13809 2.93565 8.41423L6.16345 10.5963C6.34835 10.7213 6.42802 10.9537 6.35869 11.1659L5.09141 15.0435C4.94114 15.5033 5.46632 15.8872 5.85886 15.6046L9.20803 13.1927C9.38244 13.0671 9.61759 13.0671 9.79209 13.1925L13.1499 15.6067C13.5425 15.8889 14.0673 15.505 13.9171 15.0454L12.6491 11.1656C12.5798 10.9536 12.6593 10.7213 12.844 10.5963L16.0668 8.41401C16.4749 8.13768 16.2793 7.5 15.7865 7.5H11.7885Z" fill="#FFDE32"/>
</svg>
