<svg width="24" height="24" viewBox="0 0 24 24" fill="none" xmlns="http://www.w3.org/2000/svg">
<path fill-rule="evenodd" clip-rule="evenodd" d="M21.6 12C21.6 17.3019 17.302 21.6 12 21.6C6.69809 21.6 2.40002 17.3019 2.40002 12C2.40002 6.69806 6.69809 2.39999 12 2.39999C17.302 2.39999 21.6 6.69806 21.6 12ZM14.4 8.39999C14.4 9.72548 13.3255 10.8 12 10.8C10.6745 10.8 9.60002 9.72548 9.60002 8.39999C9.60002 7.07451 10.6745 5.99999 12 5.99999C13.3255 5.99999 14.4 7.07451 14.4 8.39999ZM11.9999 13.2C9.57889 13.2 7.49276 14.6339 6.54451 16.6989C7.86486 18.2304 9.81921 19.2 12 19.2C14.1808 19.2 16.1351 18.2305 17.4554 16.699C16.5072 14.634 14.421 13.2 11.9999 13.2Z" fill="#A8A8A8"/>
</svg>
